<svg width="172" height="172" viewBox="0 0 172 172" fill="none" xmlns="http://www.w3.org/2000/svg">
<g clip-path="url(#clip0_11_44)">
<path d="M172 32.7875H155.606V40.9575H172V32.7875Z" fill="#000001"/>
<path d="M163.776 57.3512H155.606V65.5212H163.776V57.3512Z" fill="#000001"/>
<path d="M163.776 8.17H155.606V16.3937H163.776V8.17Z" fill="#000001"/>
<path d="M155.606 49.1275H147.383V57.3513H155.606V49.1275Z" fill="#000001"/>
<path d="M155.606 16.3938H147.383V24.5638H155.606V16.3938Z" fill="#000001"/>
<path d="M139.212 32.7875H131.042V49.1275H139.212V32.7875Z" fill="#000001"/>
<path d="M139.212 0H131.042V16.3937H139.212V0Z" fill="#000001"/>
<path d="M131.043 49.1275H106.425V57.3513H131.043V49.1275Z" fill="#000001"/>
<path d="M122.819 16.3938H114.649V24.5638H122.819V16.3938Z" fill="#000001"/>
<path d="M114.649 8.17H106.425V16.3937H114.649V8.17Z" fill="#000001"/>
<path d="M106.425 40.9575H98.255V49.1275H106.425V40.9575Z" fill="#000001"/>
<path d="M98.255 32.7875H90.085V40.9575H98.255V32.7875Z" fill="#000001"/>
<path d="M90.085 24.5638H65.5212V32.7875H90.085V24.5638Z" fill="#000001"/>
<path d="M57.2975 49.1275H40.9038V65.5213H24.5638V73.6913H16.34V81.915H8.17V98.3088H0V131.042H8.17V147.436H16.34V155.606H24.5638V163.83H40.9038V172H81.8612V163.83H98.255V155.606H106.425V147.436H114.649V131.042H122.819V98.3088H114.649V81.915H106.425V73.6913H98.255V65.5213H81.8612V49.1275H65.5212V32.7875H57.2975V49.1275ZM81.8612 81.915H90.085V90.085H98.255V98.3088H106.425V131.042H98.255V98.3088H90.085V90.085H81.8612V81.915ZM81.8612 139.213H90.085V147.436H81.8612V139.213Z" fill="#000001"/>
</g>
<defs>
<clipPath id="clip0_11_44">
<rect width="172" height="172" fill="white"/>
</clipPath>
</defs>
</svg>
