<svg width="55" height="66" viewBox="0 0 55 66" fill="none" xmlns="http://www.w3.org/2000/svg">
<path d="M40.5235 18.8096V21.9376H37.6168V25.0862H34.729V28.2142H31.8413V34.4908H34.729V37.6189H37.6168V40.7675H40.5235V43.8955H43.4113V34.4908H55.0002V28.2142H43.4113V18.8096H40.5235Z" fill="#000001"/>
<path d="M40.5234 50.1719H37.6167V56.4485H40.5234V50.1719Z" fill="#000001"/>
<path d="M40.5234 3.12793H37.6167V12.5326H40.5234V3.12793Z" fill="#000001"/>
<path d="M26.0464 62.7047V59.5766H37.6164V56.4486H26.0464V15.6814H23.1587V62.7047H26.0464Z" fill="#000001"/>
<path d="M23.1592 62.7046H14.458V65.8532H23.1592V62.7046Z" fill="#000001"/>
<path d="M20.252 34.4905H17.3643V40.7671H20.252V34.4905Z" fill="#000001"/>
<path d="M23.1587 12.5325H17.3643V15.6811H23.1587V12.5325Z" fill="#000001"/>
<path d="M14.4576 59.5764H8.68213V62.7044H14.4576V59.5764Z" fill="#000001"/>
<path d="M17.3648 9.40454H11.5703V12.5326H17.3648V9.40454Z" fill="#000001"/>
<path d="M8.68217 56.4485H2.8877V59.5765H8.68217V56.4485Z" fill="#000001"/>
<path d="M11.5699 6.27637H5.77539V9.40439H11.5699V6.27637Z" fill="#000001"/>
<path d="M2.88774 0V3.12802H0V56.4485H2.88774V6.27663H5.77547V3.12802H37.6166V0H2.88774Z" fill="#000001"/>
</svg>
