<svg width="96" height="96" viewBox="0 0 96 96" fill="none" xmlns="http://www.w3.org/2000/svg">
<path d="M41.13 11.43V15.99L73.14 15.99V11.43L41.13 11.43Z" fill="#000001"/>
<path d="M82.29 20.5799V66.2699H77.73V70.8599H82.29V75.4199H96V11.4299H82.29V15.9899H73.14V20.5799H82.29ZM91.44 20.5799V29.6999H86.85V20.5799H91.44Z" fill="#000001"/>
<path d="M36.57 15.99V20.58H41.13V15.99H36.57Z" fill="#000001"/>
<path d="M41.13 25.1399V29.7H54.87V25.1399H41.13Z" fill="#000001"/>
<path d="M32.01 20.58V29.7H36.57V20.58H32.01Z" fill="#000001"/>
<path d="M41.13 38.8499V43.4099H54.87V38.8499H41.13Z" fill="#000001"/>
<path d="M41.13 52.5599V57.1499H54.87V52.5599H41.13Z" fill="#000001"/>
<path d="M32.01 57.1499V29.6999H27.42V52.5599H4.56V57.1499H32.01Z" fill="#000001"/>
<path d="M0 57.1499L0 66.2699H4.56L4.56 57.1499H0Z" fill="#000001"/>
<path d="M59.43 70.8599V66.2699H4.56L4.56 70.8599H36.57V75.4199H41.13V70.8599H59.43Z" fill="#000001"/>
<path d="M73.14 70.8599V75.4199H77.73V70.8599H73.14Z" fill="#000001"/>
<path d="M63.99 75.42V79.98H73.14V75.42H63.99Z" fill="#000001"/>
<path d="M41.13 75.42V79.98H45.72V75.42H41.13Z" fill="#000001"/>
<path d="M45.72 79.9799V84.5699H63.99V79.9799H45.72Z" fill="#000001"/>
</svg>
