<svg width="63" height="63" viewBox="0 0 63 63" fill="none" xmlns="http://www.w3.org/2000/svg">
<g clip-path="url(#clip0_11_674)">
<path d="M63 23.999H59.9878V39.0009H63V23.999Z" fill="#000001"/>
<path d="M59.9879 39.001H56.9954V45.0057H59.9879V39.001Z" fill="#000001"/>
<path d="M59.9879 17.9944H56.9954V23.9991H59.9879V17.9944Z" fill="#000001"/>
<path d="M56.9953 45.0056H54.0028V50.9906H56.9953V45.0056Z" fill="#000001"/>
<path d="M56.9953 11.9897H54.0028V17.9944H56.9953V11.9897Z" fill="#000001"/>
<path d="M54.0028 50.9906H50.9906V54.0028H54.0028V50.9906Z" fill="#000001"/>
<path d="M54.0028 8.99719H50.9906V11.9897H54.0028V8.99719Z" fill="#000001"/>
<path d="M50.9906 54.0028H44.986V56.9953H50.9906V54.0028Z" fill="#000001"/>
<path d="M47.9982 21.0066H44.986V17.9944H35.9888V21.0066H32.9963V23.9991H29.9841V21.0066H26.9916V17.9944H17.9944V21.0066H15.0019V23.9991H11.9897V32.9963H15.0019V36.0084H17.9944V39.0009H20.9869V41.9934H23.9991V45.0056H26.9916V47.9981H29.9841V50.9906H32.9963V47.9981H35.9888V45.0056H39.001V41.9934H41.9935V39.0009H44.986V36.0084H47.9982V32.9963H50.9907V23.9991H47.9982V21.0066ZM44.986 32.9963H41.9935V26.9916H35.9888V23.9991H41.9935V26.9916H44.986V32.9963Z" fill="#000001"/>
<path d="M50.9906 6.00464H44.986V8.99714H50.9906V6.00464Z" fill="#000001"/>
<path d="M44.986 56.9954H39.001V60.0075H44.986V56.9954Z" fill="#000001"/>
<path d="M44.986 2.99255H39.001V6.00474H44.986V2.99255Z" fill="#000001"/>
<path d="M39.0009 60.0074H23.999V62.9999H39.0009V60.0074Z" fill="#000001"/>
<path d="M39.0009 0H23.999V2.9925H39.0009V0Z" fill="#000001"/>
<path d="M23.9991 56.9954H17.9944V60.0075H23.9991V56.9954Z" fill="#000001"/>
<path d="M23.9991 2.99255H17.9944V6.00474H23.9991V2.99255Z" fill="#000001"/>
<path d="M17.9944 54.0028H11.9897V56.9953H17.9944V54.0028Z" fill="#000001"/>
<path d="M17.9944 6.00464H11.9897V8.99714H17.9944V6.00464Z" fill="#000001"/>
<path d="M11.9897 50.9906H8.99719V54.0028H11.9897V50.9906Z" fill="#000001"/>
<path d="M11.9897 8.99719H8.99719V11.9897H11.9897V8.99719Z" fill="#000001"/>
<path d="M8.99717 45.0056H5.98499V50.9906H8.99717V45.0056Z" fill="#000001"/>
<path d="M8.99717 11.9897H5.98499V17.9944H8.99717V11.9897Z" fill="#000001"/>
<path d="M5.98505 39.001H2.99255V45.0057H5.98505V39.001Z" fill="#000001"/>
<path d="M5.98505 17.9944H2.99255V23.9991H5.98505V17.9944Z" fill="#000001"/>
<path d="M2.9925 23.999H0V39.0009H2.9925V23.999Z" fill="#000001"/>
</g>
<defs>
<clipPath id="clip0_11_674">
<rect width="63" height="63" fill="white"/>
</clipPath>
</defs>
</svg>
