<svg width="282" height="282" viewBox="0 0 282 282" fill="none" xmlns="http://www.w3.org/2000/svg">
<path d="M208.107 73.8488V100.727H221.59V73.8488H234.985V60.3656H248.38V46.9706H275.258V20.0925H261.863V6.69751H234.985V33.5756H221.59V46.9706H208.107V60.3656H181.317V73.8488H208.107Z" fill="#000001"/>
<path d="M248.38 127.517H234.985V181.273H248.38V127.517Z" fill="#000001"/>
<path d="M234.985 181.273H221.59V194.668H234.985V181.273Z" fill="#000001"/>
<path d="M234.985 100.727H221.59V127.517H234.985V100.727Z" fill="#000001"/>
<path d="M208.107 208.151H194.712V248.424H208.107V234.941H221.59V248.424H234.985V275.302H261.863V261.819H275.258V234.941H248.38V221.546H234.985V208.151H221.59V194.668H208.107V208.151Z" fill="#000001"/>
<path d="M167.834 154.395H194.712V141H208.107V114.122H194.712V100.727H167.834V114.122H154.439V141H167.834V154.395Z" fill="#000001"/>
<path d="M167.834 221.546H154.439V248.424H127.561V221.546H114.166V248.424H87.2876V261.819H194.712V248.424H167.834V221.546Z" fill="#000001"/>
<path d="M154.439 167.79H127.561V181.273H154.439V167.79Z" fill="#000001"/>
<path d="M87.2878 154.395H114.166V141H127.561V114.122H114.166V100.727H87.2878V114.122H73.8928V141H87.2878V154.395Z" fill="#000001"/>
<path d="M181.317 46.9706H100.683V60.3656H181.317V46.9706Z" fill="#000001"/>
<path d="M47.0146 208.151V221.546H33.5315V234.941H6.74146V261.819H20.1365V275.302H47.0146V248.424H60.4096V234.941H73.8927V248.424H87.2877V208.151H73.8927V194.668H60.4096V208.151H47.0146Z" fill="#000001"/>
<path d="M73.8927 73.8488H100.683V60.3656H73.8927V46.9706H60.4096V33.5756H47.0146V6.69751H20.1365V20.0925H6.74146V46.9706H33.5315V60.3656H47.0146V73.8488H60.4096V100.727H73.8927V73.8488Z" fill="#000001"/>
<path d="M60.4096 181.273H47.0146V194.668H60.4096V181.273Z" fill="#000001"/>
<path d="M60.4096 100.727H47.0146V127.517H60.4096V100.727Z" fill="#000001"/>
<path d="M47.0146 127.517H33.5315V181.273H47.0146V127.517Z" fill="#000001"/>
</svg>
